<?xml version="1.0" standalone="no"?>
<!DOCTYPE svg PUBLIC "-//W3C//DTD SVG 20010904//EN"
 "http://www.w3.org/TR/2001/REC-SVG-20010904/DTD/svg10.dtd">
<svg version="1.0" xmlns="http://www.w3.org/2000/svg"
 width="1668.000000pt" height="1668.000000pt" viewBox="0 0 1668.000000 1668.000000"
 preserveAspectRatio="xMidYMid meet">
<metadata>
Created by potrace 1.14, written by Peter Selinger 2001-2017
</metadata>
<g transform="translate(0.000000,1668.000000) scale(0.100000,-0.100000)"
fill="#000000" stroke="none">
<path d="M1555 16663 c-840 -109 -1492 -797 -1543 -1625 -4 -67 -5 -3138 -2
-6823 l6 -6700 22 -100 c35 -161 78 -280 157 -440 228 -460 641 -795 1135
-920 696 -176 1420 77 1851 648 167 222 274 466 332 762 l21 110 6 3996 5
3997 115 -100 c1051 -913 2259 -1760 3772 -2644 1031 -603 1801 -1116 2562
-1707 1684 -1308 2804 -2649 3230 -3867 131 -372 316 -645 591 -867 201 -163
479 -292 754 -350 114 -24 147 -27 341 -27 186 -1 230 2 330 22 376 76 681
241 941 508 239 246 388 526 467 878 l27 121 3 6730 c2 5069 0 6757 -9 6840
-71 676 -542 1260 -1188 1475 -219 73 -295 84 -566 84 -212 0 -252 -2 -344
-22 -388 -85 -728 -280 -972 -558 -223 -254 -356 -526 -426 -874 -16 -79 -17
-357 -23 -4106 l-5 -4022 -115 101 c-1073 933 -2365 1845 -3785 2672 -1698
988 -3058 2003 -4070 3036 -864 883 -1432 1721 -1715 2534 -28 83 -71 191 -94
240 -248 526 -755 903 -1331 990 -92 14 -397 19 -480 8z"/>
</g>
</svg>
